<?xml version="1.0" ?><svg id="katman_1" style="enable-background:new 0 0 512 512;" version="1.1" viewBox="0 0 512 512" xml:space="preserve" xmlns="http://www.w3.org/2000/svg" xmlns:xlink="http://www.w3.org/1999/xlink"><style type="text/css">
	.st0{fill:#3997D3;}
	.st1{fill:#2981BA;}
	.st2{fill:#FFFFFF;}
</style><g><g><circle class="st0" cx="256" cy="256" r="250"/></g><path class="st1" d="M489.4,345.7c-0.1-0.1-0.2-0.2-0.4-0.3c-0.3-0.2-0.6-0.6-0.9-0.8C432.3,288.7,376.5,232.7,320.5,177   c-20.6-20.5-45.7-28.4-74.5-23.6c-16.3,2.7-30.4,9.9-42.4,21.2c-12.4,11.5-20.5,25.6-24.4,42c-0.5,2.1-0.5,2.1-2.6,2.1   c-4.7,0-9.3,0.6-13.8,1.6c-32.8,7.3-56,36.1-56,70.2c-0.1,2.6,0.1,5.9,0.6,9.2c2.3,15.7,8.9,29.2,20.1,40.5   c54.2,54.2,108.4,108.4,162.5,162.6c0.4,0.4,0.7,0.7,1.1,0.9C382.1,490.7,457.4,429,489.4,345.7z"/><path class="st2" d="M342.9,360.4H177.1c-39.2,0-71.1-31.9-71.1-71.1s31.9-71.1,71.1-71.1c0.3,0,0.5,0,0.8,0   c3.7-17.7,13-33.7,26.7-45.8c15.3-13.5,35-20.9,55.4-20.9c45.9,0,83.3,37,83.9,82.8c34.3,0.5,62.1,28.6,62.1,63   C406,332.1,377.7,360.4,342.9,360.4z M177.1,231c-32.1,0-58.3,26.2-58.3,58.3s26.2,58.3,58.3,58.3h165.8   c27.7,0,50.3-22.5,50.3-50.3s-22.5-50.3-50.3-50.3c-1.7,0-3.4,0.1-5.1,0.3c-1.9,0.2-3.7-0.5-5.1-1.8c-1.4-1.3-2.1-3.2-1.9-5l0-0.7   c0.1-1.5,0.2-3,0.2-4.4c0-39.2-31.9-71.1-71.1-71.1c-17.3,0-34,6.3-46.9,17.7c-12.8,11.3-21.2,26.8-23.5,43.7   c-0.5,3.4-3.5,5.8-6.9,5.5C180.6,231.1,178.8,231,177.1,231z"/></g></svg>